<svg xmlns="http://www.w3.org/2000/svg" viewBox="0 0 800 450" width="800" height="450" role="img">
  <defs>
    <linearGradient id="bg-ai" x1="0" y1="0" x2="1" y2="1"><stop offset="0%" stop-color="#052e16"/><stop offset="50%" stop-color="#166534"/><stop offset="100%" stop-color="#16a34a"/></linearGradient>
    <radialGradient id="glow-ai" cx="50%" cy="40%" r="70%">
      <stop offset="0%" stop-color="#22c55e" stop-opacity="0.35"/>
      <stop offset="100%" stop-color="#22c55e" stop-opacity="0"/>
    </radialGradient>
    <pattern id="grid-ai" width="32" height="32" patternUnits="userSpaceOnUse">
      <circle cx="2" cy="2" r="1" fill="#ffffff" opacity="0.06"/>
    </pattern>
    <filter id="soft-ai" x="-20%" y="-20%" width="140%" height="140%">
      <feGaussianBlur stdDeviation="6"/>
    </filter>
  </defs>
  <rect width="800" height="450" fill="url(#bg-ai)"/>
  <rect width="800" height="450" fill="url(#grid-ai)"/>
  <rect width="800" height="450" fill="url(#glow-ai)"/>
  <line x1="150" y1="120" x2="320" y2="110" stroke="#ffffff" stroke-opacity="0.12" stroke-width="1.2"/><line x1="150" y1="120" x2="320" y2="190" stroke="#ffffff" stroke-opacity="0.12" stroke-width="1.2"/><line x1="150" y1="120" x2="320" y2="270" stroke="#ffffff" stroke-opacity="0.12" stroke-width="1.2"/><line x1="150" y1="120" x2="320" y2="350" stroke="#ffffff" stroke-opacity="0.12" stroke-width="1.2"/><line x1="150" y1="225" x2="320" y2="110" stroke="#ffffff" stroke-opacity="0.12" stroke-width="1.2"/><line x1="150" y1="225" x2="320" y2="190" stroke="#ffffff" stroke-opacity="0.12" stroke-width="1.2"/><line x1="150" y1="225" x2="320" y2="270" stroke="#ffffff" stroke-opacity="0.12" stroke-width="1.2"/><line x1="150" y1="225" x2="320" y2="350" stroke="#ffffff" stroke-opacity="0.12" stroke-width="1.2"/><line x1="150" y1="330" x2="320" y2="110" stroke="#ffffff" stroke-opacity="0.12" stroke-width="1.2"/><line x1="150" y1="330" x2="320" y2="190" stroke="#ffffff" stroke-opacity="0.12" stroke-width="1.2"/><line x1="150" y1="330" x2="320" y2="270" stroke="#ffffff" stroke-opacity="0.12" stroke-width="1.2"/><line x1="150" y1="330" x2="320" y2="350" stroke="#ffffff" stroke-opacity="0.12" stroke-width="1.2"/><line x1="320" y1="110" x2="490" y2="150" stroke="#ffffff" stroke-opacity="0.12" stroke-width="1.2"/><line x1="320" y1="110" x2="490" y2="225" stroke="#ffffff" stroke-opacity="0.12" stroke-width="1.2"/><line x1="320" y1="110" x2="490" y2="300" stroke="#ffffff" stroke-opacity="0.12" stroke-width="1.2"/><line x1="320" y1="190" x2="490" y2="150" stroke="#ffffff" stroke-opacity="0.12" stroke-width="1.2"/><line x1="320" y1="190" x2="490" y2="225" stroke="#ffffff" stroke-opacity="0.12" stroke-width="1.2"/><line x1="320" y1="190" x2="490" y2="300" stroke="#ffffff" stroke-opacity="0.12" stroke-width="1.2"/><line x1="320" y1="270" x2="490" y2="150" stroke="#ffffff" stroke-opacity="0.12" stroke-width="1.2"/><line x1="320" y1="270" x2="490" y2="225" stroke="#ffffff" stroke-opacity="0.12" stroke-width="1.2"/><line x1="320" y1="270" x2="490" y2="300" stroke="#ffffff" stroke-opacity="0.12" stroke-width="1.2"/><line x1="320" y1="350" x2="490" y2="150" stroke="#ffffff" stroke-opacity="0.12" stroke-width="1.2"/><line x1="320" y1="350" x2="490" y2="225" stroke="#ffffff" stroke-opacity="0.12" stroke-width="1.2"/><line x1="320" y1="350" x2="490" y2="300" stroke="#ffffff" stroke-opacity="0.12" stroke-width="1.2"/><line x1="490" y1="150" x2="650" y2="200" stroke="#ffffff" stroke-opacity="0.12" stroke-width="1.2"/><line x1="490" y1="150" x2="650" y2="250" stroke="#ffffff" stroke-opacity="0.12" stroke-width="1.2"/><line x1="490" y1="225" x2="650" y2="200" stroke="#ffffff" stroke-opacity="0.12" stroke-width="1.2"/><line x1="490" y1="225" x2="650" y2="250" stroke="#ffffff" stroke-opacity="0.12" stroke-width="1.2"/><line x1="490" y1="300" x2="650" y2="200" stroke="#ffffff" stroke-opacity="0.12" stroke-width="1.2"/><line x1="490" y1="300" x2="650" y2="250" stroke="#ffffff" stroke-opacity="0.12" stroke-width="1.2"/><circle cx="150" cy="120" r="13" fill="#fff" opacity="0.92"/><circle cx="150" cy="120" r="21" fill="none" stroke="#86efac" stroke-opacity="0.3" stroke-width="2"/><circle cx="150" cy="225" r="13" fill="#fff" opacity="0.92"/><circle cx="150" cy="225" r="21" fill="none" stroke="#86efac" stroke-opacity="0.3" stroke-width="2"/><circle cx="150" cy="330" r="13" fill="#fff" opacity="0.92"/><circle cx="150" cy="330" r="21" fill="none" stroke="#86efac" stroke-opacity="0.3" stroke-width="2"/><circle cx="320" cy="110" r="13" fill="#86efac" opacity="1"/><circle cx="320" cy="110" r="21" fill="none" stroke="#86efac" stroke-opacity="0.3" stroke-width="2"/><circle cx="320" cy="190" r="13" fill="#86efac" opacity="1"/><circle cx="320" cy="190" r="21" fill="none" stroke="#86efac" stroke-opacity="0.3" stroke-width="2"/><circle cx="320" cy="270" r="13" fill="#86efac" opacity="1"/><circle cx="320" cy="270" r="21" fill="none" stroke="#86efac" stroke-opacity="0.3" stroke-width="2"/><circle cx="320" cy="350" r="13" fill="#86efac" opacity="1"/><circle cx="320" cy="350" r="21" fill="none" stroke="#86efac" stroke-opacity="0.3" stroke-width="2"/><circle cx="490" cy="150" r="13" fill="#fff" opacity="0.92"/><circle cx="490" cy="150" r="21" fill="none" stroke="#86efac" stroke-opacity="0.3" stroke-width="2"/><circle cx="490" cy="225" r="13" fill="#fff" opacity="0.92"/><circle cx="490" cy="225" r="21" fill="none" stroke="#86efac" stroke-opacity="0.3" stroke-width="2"/><circle cx="490" cy="300" r="13" fill="#fff" opacity="0.92"/><circle cx="490" cy="300" r="21" fill="none" stroke="#86efac" stroke-opacity="0.3" stroke-width="2"/><circle cx="650" cy="200" r="13" fill="#86efac" opacity="1"/><circle cx="650" cy="200" r="21" fill="none" stroke="#86efac" stroke-opacity="0.3" stroke-width="2"/><circle cx="650" cy="250" r="13" fill="#86efac" opacity="1"/><circle cx="650" cy="250" r="21" fill="none" stroke="#86efac" stroke-opacity="0.3" stroke-width="2"/>
</svg>