<svg xmlns="http://www.w3.org/2000/svg" viewBox="0 0 800 450" width="800" height="450" role="img">
  <defs>
    <linearGradient id="bg-alc" x1="0" y1="0" x2="1" y2="1"><stop offset="0%" stop-color="#0c1a3a"/><stop offset="50%" stop-color="#312e81"/><stop offset="100%" stop-color="#4f46e5"/></linearGradient>
    <radialGradient id="glow-alc" cx="50%" cy="40%" r="70%">
      <stop offset="0%" stop-color="#6366f1" stop-opacity="0.35"/>
      <stop offset="100%" stop-color="#6366f1" stop-opacity="0"/>
    </radialGradient>
    <pattern id="grid-alc" width="32" height="32" patternUnits="userSpaceOnUse">
      <circle cx="2" cy="2" r="1" fill="#ffffff" opacity="0.06"/>
    </pattern>
    <filter id="soft-alc" x="-20%" y="-20%" width="140%" height="140%">
      <feGaussianBlur stdDeviation="6"/>
    </filter>
  </defs>
  <rect width="800" height="450" fill="url(#bg-alc)"/>
  <rect width="800" height="450" fill="url(#grid-alc)"/>
  <rect width="800" height="450" fill="url(#glow-alc)"/>
  <circle cx="150" cy="130" r="9" fill="#f87171" opacity="0.85"/><circle cx="150" cy="175" r="9" fill="#f87171" opacity="0.85"/><circle cx="150" cy="220" r="9" fill="#f87171" opacity="0.85"/><circle cx="150" cy="265" r="9" fill="#f87171" opacity="0.85"/><circle cx="150" cy="310" r="9" fill="#f87171" opacity="0.85"/><circle cx="185" cy="155" r="9" fill="#f87171" opacity="0.85"/><circle cx="185" cy="245" r="9" fill="#f87171" opacity="0.85"/><circle cx="185" cy="200" r="9" fill="#f87171" opacity="0.85"/>
    <path d="M240 150 L420 200 L420 250 L240 300 Z" fill="#ffffff" opacity="0.12"/>
    <path d="M240 150 L420 210 M240 300 L420 240" stroke="#ffffff" stroke-opacity="0.3" stroke-width="2"/>
    <line x1="420" y1="225" x2="560" y2="225" stroke="#a5b4fc" stroke-width="4"/>
    <circle cx="600" cy="225" r="28" fill="#a5b4fc"/>
    <path d="M590 225 l8 8 14 -16" fill="none" stroke="#fff" stroke-width="4" stroke-linecap="round" stroke-linejoin="round"/>
</svg>