<svg xmlns="http://www.w3.org/2000/svg" viewBox="0 0 800 450" width="800" height="450" role="img">
  <defs>
    <linearGradient id="bg-fc" x1="0" y1="0" x2="1" y2="1"><stop offset="0%" stop-color="#431407"/><stop offset="50%" stop-color="#9a3412"/><stop offset="100%" stop-color="#ea580c"/></linearGradient>
    <radialGradient id="glow-fc" cx="50%" cy="40%" r="70%">
      <stop offset="0%" stop-color="#f97316" stop-opacity="0.35"/>
      <stop offset="100%" stop-color="#f97316" stop-opacity="0"/>
    </radialGradient>
    <pattern id="grid-fc" width="32" height="32" patternUnits="userSpaceOnUse">
      <circle cx="2" cy="2" r="1" fill="#ffffff" opacity="0.06"/>
    </pattern>
    <filter id="soft-fc" x="-20%" y="-20%" width="140%" height="140%">
      <feGaussianBlur stdDeviation="6"/>
    </filter>
  </defs>
  <rect width="800" height="450" fill="url(#bg-fc)"/>
  <rect width="800" height="450" fill="url(#grid-fc)"/>
  <rect width="800" height="450" fill="url(#glow-fc)"/>
  <polyline points="150,330 632,330" fill="none" stroke="#ffffff" stroke-opacity="0.25" stroke-width="2"/>
    <path d="M390 240 L630 110 L630 200 L390 240 Z" fill="#fdba74" opacity="0.18"/>
    <path d="M390 240 L630 100 L630 180" fill="none" stroke="#fdba74" stroke-opacity="0.0"/>
    <path d="M150 300 L210 280 L270 290 L330 250 L390 240" fill="none" stroke="#ffffff" stroke-width="4" stroke-linecap="round" stroke-linejoin="round"/>
    <path d="M390 240 L450 215 L510 205 L570 175 L630 150" fill="none" stroke="#fdba74" stroke-width="4" stroke-dasharray="3 7" stroke-linecap="round" stroke-linejoin="round"/>
    <circle cx="390" cy="240" r="7" fill="#fff"/><circle cx="630" cy="150" r="9" fill="#fdba74"/>
</svg>