<svg xmlns="http://www.w3.org/2000/svg" viewBox="0 0 800 450" width="800" height="450" role="img">
  <defs>
    <linearGradient id="bg-gs" x1="0" y1="0" x2="1" y2="1"><stop offset="0%" stop-color="#1e1b4b"/><stop offset="50%" stop-color="#4c1d95"/><stop offset="100%" stop-color="#7c3aed"/></linearGradient>
    <radialGradient id="glow-gs" cx="50%" cy="40%" r="70%">
      <stop offset="0%" stop-color="#8b5cf6" stop-opacity="0.35"/>
      <stop offset="100%" stop-color="#8b5cf6" stop-opacity="0"/>
    </radialGradient>
    <pattern id="grid-gs" width="32" height="32" patternUnits="userSpaceOnUse">
      <circle cx="2" cy="2" r="1" fill="#ffffff" opacity="0.06"/>
    </pattern>
    <filter id="soft-gs" x="-20%" y="-20%" width="140%" height="140%">
      <feGaussianBlur stdDeviation="6"/>
    </filter>
  </defs>
  <rect width="800" height="450" fill="url(#bg-gs)"/>
  <rect width="800" height="450" fill="url(#grid-gs)"/>
  <rect width="800" height="450" fill="url(#glow-gs)"/>
  <path d="M148 225 A52 52 0 0 1 252 225" fill="none" stroke="#ffffff" stroke-opacity="0.18" stroke-width="10" stroke-linecap="round"/>
      <path d="M148 225 A52 52 0 0 1 230.5648331192086 182.93111629250274" fill="none" stroke="#c4b5fd" stroke-width="10" stroke-linecap="round"/>
      <line x1="200" y1="225" x2="230.5648331192086" y2="182.93111629250274" stroke="#ffffff" stroke-width="3"/>
      <circle cx="200" cy="225" r="6" fill="#ffffff"/><path d="M283 225 A52 52 0 0 1 387 225" fill="none" stroke="#ffffff" stroke-opacity="0.18" stroke-width="10" stroke-linecap="round"/>
      <path d="M283 225 A52 52 0 0 1 326.86540781790796 173.64020628905286" fill="none" stroke="#c4b5fd" stroke-width="10" stroke-linecap="round"/>
      <line x1="335" y1="225" x2="326.86540781790796" y2="173.64020628905286" stroke="#ffffff" stroke-width="3"/>
      <circle cx="335" cy="225" r="6" fill="#ffffff"/><path d="M418 225 A52 52 0 0 1 522 225" fill="none" stroke="#ffffff" stroke-opacity="0.18" stroke-width="10" stroke-linecap="round"/>
      <path d="M418 225 A52 52 0 0 1 516.3323392577952 201.39249401354357" fill="none" stroke="#c4b5fd" stroke-width="10" stroke-linecap="round"/>
      <line x1="470" y1="225" x2="516.3323392577952" y2="201.39249401354357" stroke="#ffffff" stroke-width="3"/>
      <circle cx="470" cy="225" r="6" fill="#ffffff"/><path d="M553 225 A52 52 0 0 1 657 225" fill="none" stroke="#ffffff" stroke-opacity="0.18" stroke-width="10" stroke-linecap="round"/>
      <path d="M553 225 A52 52 0 0 1 621.0688837074973 175.545061152652" fill="none" stroke="#c4b5fd" stroke-width="10" stroke-linecap="round"/>
      <line x1="605" y1="225" x2="621.0688837074973" y2="175.545061152652" stroke="#ffffff" stroke-width="3"/>
      <circle cx="605" cy="225" r="6" fill="#ffffff"/>
</svg>