<svg xmlns="http://www.w3.org/2000/svg" viewBox="0 0 800 450" width="800" height="450" role="img">
  <defs>
    <linearGradient id="bg-obs" x1="0" y1="0" x2="1" y2="1"><stop offset="0%" stop-color="#0a1628"/><stop offset="50%" stop-color="#1e3a8a"/><stop offset="100%" stop-color="#2563eb"/></linearGradient>
    <radialGradient id="glow-obs" cx="50%" cy="40%" r="70%">
      <stop offset="0%" stop-color="#3b82f6" stop-opacity="0.35"/>
      <stop offset="100%" stop-color="#3b82f6" stop-opacity="0"/>
    </radialGradient>
    <pattern id="grid-obs" width="32" height="32" patternUnits="userSpaceOnUse">
      <circle cx="2" cy="2" r="1" fill="#ffffff" opacity="0.06"/>
    </pattern>
    <filter id="soft-obs" x="-20%" y="-20%" width="140%" height="140%">
      <feGaussianBlur stdDeviation="6"/>
    </filter>
  </defs>
  <rect width="800" height="450" fill="url(#bg-obs)"/>
  <rect width="800" height="450" fill="url(#grid-obs)"/>
  <rect width="800" height="450" fill="url(#glow-obs)"/>
  <circle cx="400" cy="225" r="60" fill="none" stroke="#ffffff" stroke-opacity="0.18" stroke-width="2"/><circle cx="400" cy="225" r="106" fill="none" stroke="#ffffff" stroke-opacity="0.18" stroke-width="2"/><circle cx="400" cy="225" r="152" fill="none" stroke="#ffffff" stroke-opacity="0.18" stroke-width="2"/><circle cx="400" cy="225" r="198" fill="none" stroke="#ffffff" stroke-opacity="0.18" stroke-width="2"/>
    <path d="M400 225 L400 25 A200 200 0 0 1 573 325 Z" fill="#60a5fa" opacity="0.12"/>
    <line x1="400" y1="225" x2="400" y2="25" stroke="#60a5fa" stroke-width="3"/>
    <circle cx="480" cy="150" r="6" fill="#60a5fa"/><circle cx="480" cy="150" r="14" fill="none" stroke="#60a5fa" stroke-opacity="0.4" stroke-width="2"/><circle cx="320" cy="270" r="7" fill="#60a5fa"/><circle cx="320" cy="270" r="17" fill="none" stroke="#60a5fa" stroke-opacity="0.4" stroke-width="2"/><circle cx="520" cy="280" r="8" fill="#60a5fa"/><circle cx="520" cy="280" r="20" fill="none" stroke="#60a5fa" stroke-opacity="0.4" stroke-width="2"/><circle cx="300" cy="170" r="9" fill="#60a5fa"/><circle cx="300" cy="170" r="23" fill="none" stroke="#60a5fa" stroke-opacity="0.4" stroke-width="2"/>
    <circle cx="400" cy="225" r="8" fill="#ffffff"/>
</svg>