<svg xmlns="http://www.w3.org/2000/svg" viewBox="0 0 800 450" width="800" height="450" role="img">
  <defs>
    <linearGradient id="bg-slo" x1="0" y1="0" x2="1" y2="1"><stop offset="0%" stop-color="#431407"/><stop offset="50%" stop-color="#9a3412"/><stop offset="100%" stop-color="#ea580c"/></linearGradient>
    <radialGradient id="glow-slo" cx="50%" cy="40%" r="70%">
      <stop offset="0%" stop-color="#f97316" stop-opacity="0.35"/>
      <stop offset="100%" stop-color="#f97316" stop-opacity="0"/>
    </radialGradient>
    <pattern id="grid-slo" width="32" height="32" patternUnits="userSpaceOnUse">
      <circle cx="2" cy="2" r="1" fill="#ffffff" opacity="0.06"/>
    </pattern>
    <filter id="soft-slo" x="-20%" y="-20%" width="140%" height="140%">
      <feGaussianBlur stdDeviation="6"/>
    </filter>
  </defs>
  <rect width="800" height="450" fill="url(#bg-slo)"/>
  <rect width="800" height="450" fill="url(#grid-slo)"/>
  <rect width="800" height="450" fill="url(#glow-slo)"/>
  <text x="150" y="160" font-family="sans-serif" font-size="20" font-weight="700" fill="#fff" opacity="0.9">99.95% uptime</text><rect x="150" y="180" width="8" height="90" rx="3" fill="#fdba74" opacity="0.85"/><rect x="162" y="180" width="8" height="90" rx="3" fill="#fdba74" opacity="0.85"/><rect x="174" y="180" width="8" height="90" rx="3" fill="#fdba74" opacity="0.85"/><rect x="186" y="180" width="8" height="90" rx="3" fill="#fdba74" opacity="0.85"/><rect x="198" y="180" width="8" height="90" rx="3" fill="#fdba74" opacity="0.85"/><rect x="210" y="180" width="8" height="90" rx="3" fill="#fdba74" opacity="0.85"/><rect x="222" y="180" width="8" height="90" rx="3" fill="#fdba74" opacity="0.85"/><rect x="234" y="180" width="8" height="90" rx="3" fill="#fdba74" opacity="0.85"/><rect x="246" y="180" width="8" height="90" rx="3" fill="#fdba74" opacity="0.85"/><rect x="258" y="180" width="8" height="90" rx="3" fill="#fdba74" opacity="0.85"/><rect x="270" y="180" width="8" height="90" rx="3" fill="#fdba74" opacity="0.85"/><rect x="282" y="180" width="8" height="90" rx="3" fill="#fdba74" opacity="0.85"/><rect x="294" y="180" width="8" height="90" rx="3" fill="#f87171" opacity="1"/><rect x="306" y="180" width="8" height="90" rx="3" fill="#fdba74" opacity="0.85"/><rect x="318" y="180" width="8" height="90" rx="3" fill="#fdba74" opacity="0.85"/><rect x="330" y="180" width="8" height="90" rx="3" fill="#fdba74" opacity="0.85"/><rect x="342" y="180" width="8" height="90" rx="3" fill="#fdba74" opacity="0.85"/><rect x="354" y="180" width="8" height="90" rx="3" fill="#fdba74" opacity="0.85"/><rect x="366" y="180" width="8" height="90" rx="3" fill="#fdba74" opacity="0.85"/><rect x="378" y="180" width="8" height="90" rx="3" fill="#fdba74" opacity="0.85"/><rect x="390" y="180" width="8" height="90" rx="3" fill="#fdba74" opacity="0.85"/><rect x="402" y="180" width="8" height="90" rx="3" fill="#fdba74" opacity="0.85"/><rect x="414" y="180" width="8" height="90" rx="3" fill="#fdba74" opacity="0.85"/><rect x="426" y="180" width="8" height="90" rx="3" fill="#fdba74" opacity="0.85"/><rect x="438" y="180" width="8" height="90" rx="3" fill="#fdba74" opacity="0.85"/><rect x="450" y="180" width="8" height="90" rx="3" fill="#fdba74" opacity="0.85"/><rect x="462" y="180" width="8" height="90" rx="3" fill="#fdba74" opacity="0.85"/><rect x="474" y="180" width="8" height="90" rx="3" fill="#f87171" opacity="1"/><rect x="486" y="180" width="8" height="90" rx="3" fill="#f87171" opacity="1"/><rect x="498" y="180" width="8" height="90" rx="3" fill="#fdba74" opacity="0.85"/><rect x="510" y="180" width="8" height="90" rx="3" fill="#fdba74" opacity="0.85"/><rect x="522" y="180" width="8" height="90" rx="3" fill="#fdba74" opacity="0.85"/><rect x="534" y="180" width="8" height="90" rx="3" fill="#fdba74" opacity="0.85"/><rect x="546" y="180" width="8" height="90" rx="3" fill="#fdba74" opacity="0.85"/><rect x="558" y="180" width="8" height="90" rx="3" fill="#fdba74" opacity="0.85"/><rect x="570" y="180" width="8" height="90" rx="3" fill="#fdba74" opacity="0.85"/><rect x="582" y="180" width="8" height="90" rx="3" fill="#fdba74" opacity="0.85"/><rect x="594" y="180" width="8" height="90" rx="3" fill="#fdba74" opacity="0.85"/><rect x="606" y="180" width="8" height="90" rx="3" fill="#fdba74" opacity="0.85"/><rect x="618" y="180" width="8" height="90" rx="3" fill="#fdba74" opacity="0.85"/>
    <rect x="150" y="300" width="480" height="10" rx="5" fill="#ffffff" opacity="0.15"/>
    <rect x="150" y="300" width="360" height="10" rx="5" fill="#fdba74"/>
    <text x="150" y="335" font-family="sans-serif" font-size="13" fill="#fff" opacity="0.7">error budget</text>
</svg>