<svg xmlns="http://www.w3.org/2000/svg" viewBox="0 0 800 450" width="800" height="450" role="img">
  <defs>
    <linearGradient id="bg-tr" x1="0" y1="0" x2="1" y2="1"><stop offset="0%" stop-color="#042f2e"/><stop offset="50%" stop-color="#115e59"/><stop offset="100%" stop-color="#0d9488"/></linearGradient>
    <radialGradient id="glow-tr" cx="50%" cy="40%" r="70%">
      <stop offset="0%" stop-color="#14b8a6" stop-opacity="0.35"/>
      <stop offset="100%" stop-color="#14b8a6" stop-opacity="0"/>
    </radialGradient>
    <pattern id="grid-tr" width="32" height="32" patternUnits="userSpaceOnUse">
      <circle cx="2" cy="2" r="1" fill="#ffffff" opacity="0.06"/>
    </pattern>
    <filter id="soft-tr" x="-20%" y="-20%" width="140%" height="140%">
      <feGaussianBlur stdDeviation="6"/>
    </filter>
  </defs>
  <rect width="800" height="450" fill="url(#bg-tr)"/>
  <rect width="800" height="450" fill="url(#grid-tr)"/>
  <rect width="800" height="450" fill="url(#glow-tr)"/>
  <rect x="140" y="120" width="480" height="22" rx="11" fill="#5eead4" opacity="0.55"/>
     <text x="148" y="136" font-family="monospace" font-size="11" fill="#fff" opacity="0.85">span</text><rect x="180" y="158" width="360" height="22" rx="11" fill="#5eead4" opacity="0.6200000000000001"/>
     <text x="188" y="174" font-family="monospace" font-size="11" fill="#fff" opacity="0.85">span</text><rect x="240" y="196" width="300" height="22" rx="11" fill="#5eead4" opacity="0.6900000000000001"/>
     <text x="248" y="212" font-family="monospace" font-size="11" fill="#fff" opacity="0.85">span</text><rect x="300" y="234" width="220" height="22" rx="11" fill="#5eead4" opacity="0.76"/>
     <text x="308" y="250" font-family="monospace" font-size="11" fill="#fff" opacity="0.85">span</text><rect x="330" y="272" width="180" height="22" rx="11" fill="#5eead4" opacity="0.8300000000000001"/>
     <text x="338" y="288" font-family="monospace" font-size="11" fill="#fff" opacity="0.85">span</text><rect x="420" y="310" width="150" height="22" rx="11" fill="#5eead4" opacity="0.9000000000000001"/>
     <text x="428" y="326" font-family="monospace" font-size="11" fill="#fff" opacity="0.85">span</text><line x1="120" y1="100" x2="120" y2="360" stroke="#ffffff" stroke-opacity="0.25" stroke-width="2" stroke-dasharray="4 5"/>
</svg>